<svg viewBox="0 0 120 120" fill="none" xmlns="http://www.w3.org/2000/svg">
  <defs>
    <linearGradient id="jelly-gradient" x1="0%" y1="0%" x2="100%" y2="100%">
      <stop offset="0%" stop-color="#00e5ff"/>
      <stop offset="100%" stop-color="#0077b6"/>
    </linearGradient>
    <linearGradient id="glow" x1="50%" y1="0%" x2="50%" y2="100%">
      <stop offset="0%" stop-color="#00bfff" stop-opacity="0.8"/>
      <stop offset="100%" stop-color="#0077b6" stop-opacity="0.4"/>
    </linearGradient>
  </defs>
  <!-- Jellyfish bell/dome -->
  <ellipse cx="60" cy="45" rx="40" ry="35" fill="url(#jelly-gradient)"/>
  <!-- Inner glow -->
  <ellipse cx="60" cy="40" rx="28" ry="22" fill="url(#glow)" opacity="0.6"/>
  <!-- Eyes -->
  <circle cx="48" cy="42" r="5" fill="#050810"/>
  <circle cx="72" cy="42" r="5" fill="#050810"/>
  <circle cx="49" cy="41" r="2" fill="#ffffff"/>
  <circle cx="73" cy="41" r="2" fill="#ffffff"/>
  <!-- Tentacles -->
  <path d="M30 75 Q25 90 30 105" stroke="#00bfff" stroke-width="4" stroke-linecap="round" fill="none" opacity="0.8"/>
  <path d="M45 78 Q40 95 45 110" stroke="#00bfff" stroke-width="4" stroke-linecap="round" fill="none" opacity="0.8"/>
  <path d="M60 80 Q55 97 60 115" stroke="#00bfff" stroke-width="4" stroke-linecap="round" fill="none" opacity="0.8"/>
  <path d="M75 78 Q80 95 75 110" stroke="#00bfff" stroke-width="4" stroke-linecap="round" fill="none" opacity="0.8"/>
  <path d="M90 75 Q95 90 90 105" stroke="#00bfff" stroke-width="4" stroke-linecap="round" fill="none" opacity="0.8"/>
  <!-- Wavy frills at bottom of bell -->
  <path d="M25 70 Q35 80 45 70 Q55 80 65 70 Q75 80 85 70 Q95 80 95 75" stroke="#00e5ff" stroke-width="3" fill="none"/>
</svg>
